PathFileType	4	(X/Y/Z)	C:\Users\°ÂÌØÂü\Desktop\20210112\bx_y_5_902-Unnamed.trc
DataRate	CameraRate	NumFrames	NumMarkers	Units	OrigDataRate	OrigDataStartFrame	OrigNumFrames
50.00	50.00	       6	0	mm	50.00	394	       525
Frame#	Time	
		

394	7.860	-119.23838	132.56264	1007.29504	-884.17883	277.39505	722.46497	-676.99341	51.72635	165.51932	-939.15546	72.47175	1093.75830	-856.52252	268.38153	854.26099	-368.39117	265.08060	919.41272	-868.84369	242.61461	612.88348	-850.64337	236.23747	558.02722	-784.46167	196.41685	532.01331	-869.55725	248.80370	480.00946	-517.99005	-72.97462	142.95448	-782.49231	-25.96928	797.38898	-604.95416	19.56832	167.42059	-677.20374	175.72401	161.65288	-776.41901	226.33386	201.49664	-596.20123	223.09039	173.23672	-882.49646	295.94296	144.45332	-562.80042	259.54709	164.76358	-665.72858	299.88055	159.05110	-627.83136	307.71848	161.26424	-528.12457	303.77267	146.43768	-730.05096	68.73568	222.96472	-792.43329	201.63390	801.12970	-774.22705	-13.31841	199.11568	-797.52069	50.48315	172.11420	-799.38385	176.22267	180.01814	-862.69885	-48.69098	464.90527	-665.35175	-69.46622	159.71716	-875.98779	-78.82961	141.22340	-811.35077	134.79431	561.56567	-854.67102	-76.75032	689.69135	-854.10138	-93.30108	841.41663	-841.21967	-40.84003	553.16980	-563.22443	-37.66833	163.52258	-720.72540	155.92874	221.50706	-623.89911	-80.08879	157.55438	-778.45361	3.24211	524.30908	
395	7.880	-118.67386	133.57031	1011.48108	-883.96008	277.35434	722.43890	-677.11047	51.79412	165.66589	-939.00580	72.89103	1093.82092	-856.16083	268.41989	854.31616	-368.28967	265.49582	921.74078	-868.73657	242.75392	613.08942	-850.23956	236.21487	557.46179	-784.53912	196.57475	532.05029	-869.55353	248.88414	479.92938	-517.91119	-72.83681	142.86755	-782.30981	-25.99810	797.71790	-604.95264	19.48772	167.55722	-676.93579	175.82285	161.56856	-776.54150	226.05481	201.31813	-596.17230	223.17319	173.36778	-882.45978	296.10638	144.68683	-562.74792	259.44928	164.58827	-665.80591	299.80533	159.24574	-627.74426	307.69635	161.21588	-527.98865	304.03409	146.22124	-730.07990	68.62072	222.97952	-792.25720	201.74393	801.36945	-774.30280	-13.28945	199.02893	-797.57135	50.45553	172.16385	-799.45917	176.27538	180.03842	-862.52057	-48.50864	465.02341	-665.42554	-69.44921	159.73123	-876.20258	-79.09181	141.36234	-810.94745	134.76268	561.57330	-854.36157	-76.85150	689.87726	-853.89624	-93.17986	841.95636	-840.98383	-40.52748	553.23474	-563.15918	-37.66089	163.52266	-720.85278	156.13197	221.33611	-623.86639	-80.19942	157.42316	-778.35614	3.45520	524.34216	
396	7.900	-118.28340	134.34195	1016.58905	-883.81641	277.63498	722.79224	-677.15668	51.57501	165.40486	-939.13361	73.14386	1093.96167	-856.00836	268.36316	854.59375	-367.88126	266.64474	926.20209	-868.68732	243.08231	613.21918	-850.27094	236.76204	557.91748	-784.53912	196.57475	532.05029	-869.59137	249.06378	479.92902	-518.02191	-73.17791	142.95326	-782.05865	-25.58107	797.58051	-604.92010	19.44663	167.44218	-677.01208	175.79247	161.69145	-776.64246	226.23994	201.28781	-596.19153	223.17091	173.13385	-882.50714	296.23981	144.70372	-562.89008	259.32635	164.41858	-665.80658	300.06378	158.89131	-627.87769	307.55011	161.13969	-527.99066	303.65909	145.99557	-729.76013	68.71392	222.99960	-792.25720	201.74393	801.36945	-774.29553	-13.30567	199.05266	-797.45819	50.28923	172.05824	-799.38385	176.22267	180.01814	-862.52277	-48.63495	465.08139	-665.25897	-69.59246	159.72682	-875.96283	-79.04760	141.00154	-810.94312	135.00513	561.93048	-854.09357	-76.66282	690.32446	-853.80426	-92.75173	841.80603	-840.84412	-40.01897	552.73352	-563.17175	-37.57258	163.67125	-721.18402	156.56599	221.41893	-623.98566	-80.07006	157.47032	-778.74530	3.73890	524.07300	
397	7.920	-117.78780	135.33833	1022.73480	-883.62268	277.77231	722.78564	-677.13263	51.69743	165.62497	-940.01367	73.82379	1093.64966	-855.89380	268.30157	854.50830	-368.23294	267.53162	930.88464	-868.66138	243.62131	613.56952	-850.27094	236.76204	557.91748	-784.47528	196.60283	531.95850	-869.57452	249.31992	479.88660	-517.83008	-72.96237	142.75020	-782.02942	-25.20873	797.39478	-604.79193	19.44398	167.57732	-677.01208	175.79247	161.69145	-776.59259	226.55730	201.41095	-596.12408	223.31595	173.26027	-882.45978	296.10638	144.68683	-562.54651	259.49881	164.47543	-665.76978	299.90698	159.06815	-627.79071	307.70117	161.14217	-527.99896	303.84985	146.13991	-729.91339	68.63097	222.83893	-791.69458	202.14090	801.68884	-774.33624	-13.31163	198.96385	-797.67896	50.37410	172.20271	-799.39966	176.29634	179.91324	-862.56122	-48.50988	464.94202	-665.50061	-69.43850	159.73701	-875.99298	-78.87768	141.19183	-810.95117	135.32309	562.01160	-853.87457	-76.60537	690.41394	-853.40771	-91.90337	841.97473	-841.12567	-39.99435	552.69238	-563.19122	-37.61940	163.60870	-721.33844	156.37404	221.85828	-623.93585	-80.16792	157.65157	-778.95026	3.91161	523.89307	
398	7.940	-117.44046	135.88391	1030.13721	-883.51855	277.94931	723.22705	-677.13263	51.69743	165.62497	-940.30719	74.32524	1093.29370	-855.82159	269.01230	855.13885	-367.69363	268.13681	936.05450	-868.69397	243.53671	613.58380	-850.27094	236.76204	557.91748	-784.56451	197.28813	531.74347	-869.52655	249.41109	479.77429	-517.94305	-73.04010	142.86635	-781.92523	-25.09979	797.41406	-604.99347	19.51200	167.64978	-676.86926	175.71298	161.84193	-776.50574	226.37624	201.32018	-596.23059	223.25592	173.29553	-882.50897	296.11002	144.64049	-562.77441	259.69827	164.77460	-665.77234	299.87476	159.04805	-627.58313	307.76883	161.17516	-527.99896	303.84985	146.13991	-729.91339	68.63097	222.83893	-791.69458	202.14090	801.68884	-774.34503	-13.25018	198.93069	-797.56628	50.44261	172.05518	-799.39966	176.29634	179.91324	-862.61035	-48.41980	464.92484	-665.41473	-69.43070	159.69469	-876.18549	-79.02498	141.45282	-810.95117	135.32309	562.01160	-853.62073	-76.17142	690.09430	-853.32776	-91.67286	842.29712	-841.30396	-39.93578	552.89954	-563.19202	-37.80670	163.64427	-721.11481	156.28824	221.59148	-623.97766	-80.15784	157.37700	-778.79303	3.73180	523.88568	
399	7.960	-117.11107	136.81419	1039.19958	-883.44263	277.85275	723.65430	-677.13263	51.69743	165.62497	-940.94434	74.10540	1093.00757	-855.61188	268.94275	855.56378	-367.79388	268.99490	942.15784	-868.74402	243.56108	613.49811	-850.66132	236.51147	557.69916	-785.02197	197.25658	531.45538	-869.80560	249.72081	479.79181	-518.02191	-73.17791	142.95326	-781.65466	-24.34532	797.28650	-604.81354	19.46326	167.51750	-676.86926	175.71298	161.84193	-776.79651	225.92622	200.82875	-596.23535	223.42731	173.45091	-882.68665	296.11078	144.60376	-562.81891	259.60709	164.65425	-665.80890	299.83334	158.80435	-627.83136	307.71848	161.26424	-528.10730	303.67801	146.11758	-729.91339	68.63097	222.83893	-790.69507	203.15634	802.60034	-774.45197	-13.15281	198.92575	-797.75183	50.52448	172.11510	-799.39966	176.29634	179.91324	-862.82550	-48.37505	464.83188	-665.45233	-69.40266	159.80624	-875.97589	-78.81084	141.28232	-811.41522	135.47603	561.39716	-853.18103	-75.60488	689.91071	-852.94635	-90.59297	841.25836	-841.54260	-39.68227	552.72137	-563.23474	-37.53822	163.59247	-721.06659	156.20280	221.60194	-624.04517	-80.10673	157.91920	-779.22699	4.12908	523.90875	
